<?xml version="1.0" standalone="no"?><!DOCTYPE svg PUBLIC "-//W3C//DTD SVG 1.1//EN" "http://www.w3.org/Graphics/SVG/1.1/DTD/svg11.dtd"><svg t="1647248123157" class="icon" viewBox="0 0 1024 1024" version="1.1" xmlns="http://www.w3.org/2000/svg" p-id="3531" width="300" height="300" xmlns:xlink="http://www.w3.org/1999/xlink"><defs><style type="text/css"></style></defs><path d="M384.256 160.032C209.344 157.472 64 282.88 64 430.752c0 85.376 41.152 159.456 120.832 213.824 0 0-29.216 94.016-28.8 95.904 0.416 1.888 6.784 5.568 8.96 4.384 2.24-1.216 105.6-61.344 105.6-61.344 74.016 24.8 119.2 18.688 126.912 17.664l1.056-0.128a191.424 191.424 0 0 1-7.2-90.88c30.88-173.44 212.864-227.36 312.608-218.144-27.52-125.248-147.2-229.44-319.712-232z m-121.6 142.336c-22.912 0-41.536 18.144-41.536 40.544s18.624 40.544 41.568 40.544 41.536-18.144 41.536-40.544S285.632 302.4 262.688 302.4z m251.52 0c-22.944 0-41.536 18.144-41.536 40.544s18.592 40.544 41.536 40.544c22.944 0 41.568-18.144 41.568-40.544s-18.624-40.544-41.568-40.544z" fill="#31CE6F" p-id="3532"></path><path d="M960 636.544c0-126.688-125.6-223.744-271.296-223.744-154.24 0-277.28 99.264-277.28 225.92 0 126.944 117.024 232 277.44 232.896 32.32 0.16 80.416-7.936 112.864-21.12 0 0 77.536 45.856 81.888 45.504a7.072 7.072 0 0 0 6.72-6.56c0.192-2.88-24.704-74.496-24.704-74.496 66.56-50.88 94.368-106.912 94.368-178.4z m-372.8-118.592c-20.32 0-36.8 16.064-36.8 35.904 0 19.84 16.48 35.936 36.8 35.936 20.288 0 36.736-16.096 36.736-35.936s-16.448-35.904-36.768-35.904z m196.512 0c-20.288 0-36.736 16.064-36.736 35.904 0 19.84 16.448 35.936 36.736 35.936 20.32 0 36.768-16.096 36.768-35.936s-16.448-35.904-36.768-35.904z" fill="#31CE6F" p-id="3533"></path></svg>